# xmcd CD database file generated by OrangeCD 5.2
#
# Track frame offsets:
#	150
#	14329
#	27885
#	45159
#	60835
#	80942
#
# Disc length: 1331 seconds
#
# Revision: 0
# Processed by: cddbd v1.5.1PL0 Copyright (c) Steve Scherf et al.
# Submitted via: OrangeCD 5.2
#
DISCID=3b053106
DTITLE=Various Artist - Rob Fowler's '6 Pack'
DYEAR=1900
DGENRE=Country
TTITLE0=Steve Charles - Find Out What's Happenin'
TTITLE1=Alan Jones - Dream Lover
TTITLE2=Steve Charles - Chance That Dance
TTITLE3=Sally-Ann Harman - Not That Kind
TTITLE4=Vonnie Johnston - Reach
TTITLE5=Sally-Ann Harman - Fame
EXTD=
EXTT0=
EXTT1=
EXTT2=
EXTT3=
EXTT4=
EXTT5=
PLAYORDER=
